<svg width="596" height="876" viewBox="0 0 596 876" fill="none" xmlns="http://www.w3.org/2000/svg">
<path d="M278.167 853.752C259.267 828.052 240.767 802.952 222.967 777.552C161.767 690.552 105.167 600.752 59.4666 504.452C37.0666 457.152 16.4666 408.952 6.46664 357.452C-12.4334 260.852 9.96664 174.052 75.3666 100.152C138.467 29.0523 219.267 -3.54773 314.067 0.352269C446.367 5.85227 561.867 105.352 588.767 235.452C599.767 288.852 596.167 341.052 579.767 393.052C546.867 496.452 495.367 590.552 436.467 680.752C394.367 745.152 348.567 807.152 304.367 870.152C303.267 871.652 302.167 873.052 300.667 874.752C298.467 877.152 288.467 867.752 278.167 853.752ZM442.967 301.952C446.867 226.652 384.367 156.452 309.667 152.352C223.467 147.552 156.667 207.552 152.067 294.252C148.067 369.552 211.967 439.452 288.267 443.052C372.167 447.052 438.667 386.252 442.967 301.952Z" fill="#ffffff"/>
</svg>
