<svg width="660" height="876" viewBox="0 0 660 876" fill="none" xmlns="http://www.w3.org/2000/svg">
<path d="M220.167 290.852C99.8667 360.352 283.367 704.452 415.067 628.452L537.167 839.852C481.567 871.952 434.667 892.152 370.267 855.352C191.467 753.152 -5.3333 412.452 0.266698 209.252C2.1667 138.652 43.8667 110.952 98.1667 79.5523C121.467 119.952 196.767 250.352 220.167 290.852ZM270.567 285.152C257.567 292.652 240.867 288.252 233.267 275.152L118.267 75.8523C110.767 62.8523 115.167 46.1523 128.267 38.5523L188.767 3.65227C201.767 -3.84773 218.467 0.55227 226.067 13.6523L341.167 212.952C348.667 225.952 344.267 242.652 331.167 250.152L270.567 285.152ZM584.967 829.652C571.967 837.152 555.267 832.752 547.667 819.652L432.667 620.352C425.167 607.352 429.567 590.652 442.667 583.052L503.167 548.152C516.167 540.652 532.867 545.052 540.467 558.152L655.567 757.452C663.067 770.452 658.667 787.152 645.567 794.752L584.967 829.652Z" fill="#ffffff"/>
</svg>
